<svg xmlns="http://www.w3.org/2000/svg" viewBox="0 0 1109.77 157.57"><defs><style>.cls-1{fill:#bfbfbf;}.cls-2{fill:#010101;}.cls-3{fill:#020202;}.cls-4{fill:#fcfcfc;}.cls-5{fill:#fdfdfd;}.cls-6{fill:#fefefe;}</style></defs><g id="Layer_2" data-name="Layer 2"><g id="Layer_1-2" data-name="Layer 1"><path class="cls-1" d="M41,22.52c-3.92-.1-7.5,1.27-11,2.63A7.34,7.34,0,0,0,25,32.52c0,21.63-.08,43.27,0,64.9,0,5.66,5.54,9.69,13.89,11.15a96.27,96.27,0,0,0,16.87,1.06c21.8,0,43.6.07,65.4,0,5.52,0,9.74,1.62,11.94,7a17,17,0,0,1,0,7.92c-1.93,4.55-5.34,6.14-10.27,6.1-27.26-.18-54.52.15-81.77-.29-11.33-.19-22.25-3.24-31.21-10.68a24,24,0,0,1-9-18.16C.16,95.67.63,89.84.6,84c-.08-17.33,0-34.66,0-52,0-1.81-.36-3.66.37-5.43C2.49,16,9.35,9.84,18.54,6A66.31,66.31,0,0,1,38.11,1.42c2.6-1,5.44.4,8-.83,25.05,0,50.1.1,75.15,0,5.51,0,9.7,1.65,11.88,7a16.92,16.92,0,0,1,0,7.91c-2,5-6.05,6-10.87,6q-38.13,0-76.25.17C44.42,22.58,42.51,21.42,41,22.52Z"/><path class="cls-1" d="M524.87,54.6c1-10,6.91-16.18,15.88-19.72A71.37,71.37,0,0,1,562,30.43c10.64-.8,21.29-.29,31.94-.32,8,0,16-.5,23.94.31a85.24,85.24,0,0,1,18.91,4c12.3,4.39,18.93,13.19,19,26.25q.18,29,0,58c-.05,10.43-7.8,15.93-17.55,12.46-4.63-1.66-6.35-5.39-6.33-10.25.08-18.16,0-36.32,0-54.49,0-12.11-2.24-15.29-14.43-15.67-19.15-.59-38.32-.18-57.48,0-2.25,0-4.52,1-6.7,1.7-3.88,1.33-5.59,3.77-5.53,8.25.26,19.49-.19,39,.24,58.48.21,9.93-7.36,14.35-17,11.9-4.2-1.07-6.29-4.09-6.22-8.49-.8-11.14-.31-22.3-.31-33.44C524.56,77.56,524,66.07,524.87,54.6Z"/><path class="cls-1" d="M776.88,157.49c-8.45,0-16.89,0-25.34,0-6.69,0-9.41-2.86-9.54-9.82s2.36-9.87,9.16-10.07c7.28-.2,14.57-.14,21.85-.19,2.25-1,4.79.37,7-.86,4.84,0,8.81-2,12.14-6.05H725.05c-1.54-1.11-3.47.09-5-.87-9.31-.82-18-3.08-25.72-8.91a24.43,24.43,0,0,1-10.13-19.94c-.29-12.45.28-24.93-.16-37.38-.67-19.11,10.94-27.29,23.87-30.61A59.85,59.85,0,0,1,722,30.41c16-.79,32-.14,47.93-.32,2,0,4-.35,5.94.33,8.59.92,17.11,2.31,24.88,6.29,11.18,5.73,16,15.35,16.05,27.62,0,20.49.15,41,0,61.45-.13,14.41-9,25-23.7,28.67-3.69.92-7.46,1.48-11.2,2.21C780.33,157.55,778.42,156.4,776.88,157.49Z"/><path class="cls-1" d="M425.77,29.55c.08-6.82.28-13.65.19-20.47,0-4.94,2.18-7.7,7-8.62,11.51-2.22,16.31,3.89,16.2,12.75-.35,28.13-.41,56.28,0,84.42.23,15.89-8.52,24.62-21.13,28.91-4.2,1.43-8.67,2.08-13,3.09-1.9,1-4.15-.31-6,.87H354.09c-1.54-1.09-3.45.05-5-.83-10.38-1-20.29-3.11-27.74-11.31a22.18,22.18,0,0,1-6.21-15.24c-.05-14.31-.13-28.62,0-42.92.11-10.45,5-18.3,14.14-23.25C337,32.8,345.4,31,354.07,30.41c6.13-.76,12.28-.28,18.42-.31,16.13-.09,32.27,0,48.41-.06C422.52,30,424.23,30.51,425.77,29.55Z"/><path class="cls-1" d="M155.89,58.61c-.71-11.31,9.77-21.65,20.24-24.74,5.5-1.63,11.29-2.32,17-3.43,9.06-.83,18.14-.33,27.2-.32,9.9,0,19.8-.5,29.69.3,10,1.73,19.9,3.32,27.94,10.46,7,6.22,8.69,14.52,8.81,23,.19,12.76.5,25.53-.48,38.34-1.17,15.4-13.12,23.15-25.31,26.24-15.05,3.8-30.41,1.78-45.64,2-11.56.18-23.2,1.05-34.62-2-11.16-3-20.15-8.28-23.84-20.12a41.27,41.27,0,0,1-.91-5.85C155.29,87.86,155.35,73.24,155.89,58.61Z"/><path class="cls-2" d="M883.83,68.94c-.47,17.67-.5,35.33,0,53-5.64,2.51-7.49,1.63-8.39-4-.16-1.07-.33-2-1.77-1.48l-4.87,3.75c-8.15,5.64-22.25,5.21-30.39-.8C820.65,106.23,823.21,80.14,840,70c9.23-5.58,24.78-5.78,32.74,2.9.53.57,1,1.3,2.09,1.29,1.66-2-1.07-6.26,3-6.91C879.8,66.93,882.61,65.74,883.83,68.94Z"/><path class="cls-2" d="M1030.61,109.44l-1.77,2.85a18.83,18.83,0,0,1-7.12,7.08l.08-.07c-1.65,1.78-3.84,2.48-6.12,3l.11-.08c-18.57,5.93-34.28-1.66-38.52-19.1-3.16-13-.6-22.8,11.05-32.25,8.17-6.63,23.93-6.63,32.78-.35a21.67,21.67,0,0,1,6.75,7.23,56.59,56.59,0,0,1,5.1,12.77c.78,5.43.78,5.47-4.16,5.48-13.22,0-26.44.11-39.66-.06-3.91-.06-5.74.87-4.31,5-.16,4.65,2.69,7.72,5.68,10.71a5.49,5.49,0,0,1,2.17,1.12c10.3,7.07,21.93,5.1,29.56-4.93a33.27,33.27,0,0,0,2.7-3.53C1030.69,106.24,1030.69,106.24,1030.61,109.44Z"/><path class="cls-1" d="M476,82.53q0-18.21,0-36.44c0-7.3,2.07-9.82,8.4-10.49,7.44-.79,13.49,2.59,14,8.63.13,1.62.51,3.26.51,4.91q0,34.46,0,68.9c0,9.76-3.89,13.69-13,13.45-6.36-.17-9.78-3.52-9.82-10C476,108.49,476,95.51,476,82.53Z"/><path class="cls-3" d="M924.86,99.76a17.62,17.62,0,0,1-1,17.61,7.67,7.67,0,0,1-4.15,4l.09-.07c-5.1,4.6-18.1,3.3-23.64-1.69-2.66-2.4-1.59-4.31-.13-6.46,1.81-2.66,3.34-1.45,5.22.15,5.56,4.74,11.53,5,15.6.81,3.42-3.5,3.52-7.44.27-11-2.27-2.51-5.22-4-8.18-5.56a30.33,30.33,0,0,1-8.16-5.58c-8.3-8.42-5.09-22,6.12-25.56,6.51-2.06,15.93,1.59,19.87,7.7l-3.94,4.19c-2.2.75-3.24-1.21-4.57-2.17-3.62-2.6-7.28-3.82-11.53-1.69l.08-.07c-1,1.06-2.24,1.86-2.88,3.22h0c-1,1.8-.5,3.65-.14,5.49-.06,1.93,1.37,2.75,2.7,3.64,4.67,3.15,10.16,4.89,14.52,8.54A12.28,12.28,0,0,1,924.86,99.76Z"/><path class="cls-3" d="M943.81,83.05c-.07,1.93,1.36,2.75,2.7,3.64,4.66,3.15,10.16,4.89,14.51,8.54a12.19,12.19,0,0,1,3.83,4.53,17.61,17.61,0,0,1-1,17.61,7.7,7.7,0,0,1-4.15,4l.08-.07c-5.09,4.6-18.1,3.3-23.63-1.69-2.66-2.4-1.6-4.31-.13-6.46,1.8-2.66,3.34-1.45,5.22.15,5.56,4.74,11.53,5,15.59.81,3.42-3.5,3.53-7.44.27-11-2.27-2.51-5.22-4-8.18-5.56a30.33,30.33,0,0,1-8.16-5.58c-8.3-8.42-5.09-22,6.12-25.56,6.51-2.06,15.93,1.59,19.87,7.7l-3.94,4.19c-2.2.75-3.24-1.21-4.57-2.17-3.61-2.6-7.28-3.82-11.52-1.69l.08-.07c-1,1.06-2.24,1.86-2.88,3.22h0C942.92,79.36,943.44,81.21,943.81,83.05Z"/><path class="cls-3" d="M1086.79,83.05c-.06,1.93,1.37,2.75,2.7,3.64,4.66,3.15,10.16,4.89,14.51,8.54a12.1,12.1,0,0,1,3.83,4.53,17.59,17.59,0,0,1-1,17.61,7.7,7.7,0,0,1-4.15,4l.09-.07c-5.1,4.6-18.1,3.3-23.64-1.69-2.66-2.4-1.59-4.31-.13-6.46,1.8-2.66,3.34-1.45,5.22.15,5.56,4.74,11.53,5,15.59.81,3.42-3.5,3.53-7.44.28-11-2.28-2.51-5.22-4-8.19-5.56a30.13,30.13,0,0,1-8.15-5.58c-8.31-8.42-5.1-22,6.12-25.56,6.5-2.06,15.93,1.59,19.87,7.7q-2,2.09-3.94,4.19c-2.21.75-3.25-1.21-4.57-2.17-3.62-2.6-7.29-3.82-11.53-1.69l.08-.07c-1,1.06-2.24,1.86-2.88,3.22h0C1085.91,79.36,1086.43,81.21,1086.79,83.05Z"/><path class="cls-3" d="M1071.81,68.94a6,6,0,0,0,0,4c-1.57,2.2-3.82.7-5.74,1-1.72.32-3.56-.41-5.24.5l0,0c-1,8.28-.27,16.59-.44,24.88-.12,6.49-.17,13,0,19.48.11,3.19-.74,4.29-4.14,4.33-3.69,0-3.95-1.66-3.93-4.54.09-13.15-.12-26.3.14-39.45.08-4.15-1.12-5.63-5.26-5.22-2,.2-4.88,1.25-4.91-2.84,0-2.89.59-4.15,3.83-4.12,6.24,0,6.24-.15,6.24-6.44,0-3.83.14-7.66,0-11.48-.17-3.58,2.23-2.89,4.32-3,2.28-.14,3.85.17,3.73,3.12-.17,4.65.13,9.33-.1,14-.15,3,.81,4,3.91,4C1066.77,67.24,1070,65.39,1071.81,68.94Z"/><path class="cls-1" d="M489.94,7.43c10.45,1.38,13.56,10.88,10.46,17.26A9.56,9.56,0,0,1,497,28.85a20.52,20.52,0,0,1-17.2,1.87c-6.42-2-8.31-6-7.67-13.72.41-4.95,4-8.06,10.94-9.55A14,14,0,0,1,489.94,7.43Z"/><path class="cls-4" d="M966.78,74.07c-4.54-4.36-9.54-7.77-16.23-7.41-6,.33-10.53,3.14-12.77,8.77s-1.44,11,3,15.64c3.3,3.44,7.62,5.24,11.65,7.53,7.37,4.2,9.6,9.21,6.38,14.33-3.49,5.57-10.8,6.39-17.06,1.6-2.4-1.83-4-3-6.15.27s.83,4.2,2.44,5.25c7,4.52,14.3,4.75,21.78,1.25-4.43,4.79-15.44,4.5-22.93-.08-3.92-2.4-4.65-4.53-1.74-8.2,2.19-2.75,3.86-2.94,6.44-.45,3.24,3.11,7.06,4.89,11.74,3,5.84-2.34,7.06-7.6,2.94-12.25-2.19-2.47-5.19-3.51-7.9-5.1-5.3-3.11-10.46-6.26-12.52-12.76-1.8-5.71,1.19-13.85,5.93-17.2s13.5-4.06,18.4-.76C962.69,69.2,966.77,69.72,966.78,74.07Z"/><path class="cls-4" d="M926.79,74.07c-4.55-4.36-9.55-7.77-16.23-7.41-6,.33-10.54,3.14-12.77,8.77s-1.44,11,3,15.64c3.31,3.44,7.63,5.24,11.65,7.53,7.38,4.2,9.61,9.21,6.39,14.33-3.5,5.57-10.8,6.39-17.06,1.6-2.4-1.83-4-3-6.16.27s.83,4.2,2.45,5.25c7,4.52,14.29,4.75,21.78,1.25-4.44,4.79-15.45,4.5-22.94-.08-3.91-2.4-4.64-4.53-1.73-8.2,2.19-2.75,3.85-2.94,6.44-.45,3.23,3.11,7.06,4.89,11.74,3,5.83-2.34,7.06-7.6,2.93-12.25-2.19-2.47-5.19-3.51-7.9-5.1-5.3-3.11-10.45-6.26-12.51-12.76-1.81-5.71,1.19-13.85,5.92-17.2s13.51-4.06,18.4-.76C922.69,69.2,926.78,69.72,926.79,74.07Z"/><path class="cls-4" d="M1109.77,74.07c-4.55-4.36-9.55-7.77-16.23-7.41-6,.33-10.54,3.14-12.78,8.76s-1.43,11,3,15.65c3.31,3.44,7.63,5.24,11.65,7.53,7.38,4.2,9.6,9.21,6.39,14.33-3.5,5.57-10.81,6.39-17.07,1.6-2.39-1.83-4-3-6.15.27s.83,4.2,2.44,5.25c7,4.52,14.3,4.75,21.79,1.25-4.44,4.79-15.45,4.5-22.94-.08-3.92-2.4-4.64-4.53-1.74-8.2,2.19-2.75,3.86-2.94,6.45-.45,3.23,3.11,7.06,4.89,11.74,3,5.83-2.34,7.06-7.6,2.93-12.25-2.19-2.47-5.19-3.51-7.9-5.1-5.3-3.11-10.45-6.26-12.51-12.76-1.81-5.71,1.18-13.85,5.92-17.2s13.5-4.06,18.4-.76C1105.67,69.2,1109.75,69.72,1109.77,74.07Z"/><path class="cls-4" d="M1071.81,68.94c-1.46-2.07-3.72-1.5-5.51-1.21-5.33.87-6.59-1.47-6.09-6.3.4-3.79-.1-7.66.13-11.48.21-3.26-1.58-3.29-4-3.37-2.65-.09-3.51.84-3.39,3.44.18,4-.25,8,.13,12,.43,4.48-.92,6.4-5.63,5.73-1.4-.2-3.77-1.1-4.32,1s-1.39,5,3,5c6.88,0,6.88.24,6.88,7.23,0,12.49,0,25,0,37.46,0,2.54-.07,4.29,3.51,4.34,3.75.06,3.88-1.7,3.86-4.53-.09-13-.06-26,0-38.95,0-1.6-.57-3.32.55-4.82,0,14.82,0,29.65.13,44.46,0,3.32-.75,4.71-4.41,4.75-3.82,0-4.8-1.27-4.74-4.92.19-13-.09-26,.16-39,.08-4.15-1.14-5.79-5.32-5.27-2.6.33-4.93.26-4.86-3.64.06-3.15.85-4.86,4.22-4.31,5,.8,6.43-1.41,5.94-6.11-.37-3.63.13-7.34-.12-11s1.71-4,4.59-4,4.76.47,4.54,4.06c-.26,4,.17,8-.13,12s1,5.34,5,5.17C1067.84,66.6,1071.22,64.7,1071.81,68.94Z"/><path class="cls-4" d="M883.83,68.94c-2.25-2.14-5.38-2.24-6.94-.31-1.26,1.56-.57,4.7-.78,7.75-4.37-3.77-8.24-7.32-13.54-8.72-12.32-3.24-24.16,1.17-31.26,11.87-6.56,9.87-6,24,1.28,33.14,8.09,10.15,20,13.55,32.08,9.16,1.4-.51,2.77-1.11,4.15-1.66-1.67,3.67-5.48,3.65-8.45,4.16-21.09,3.69-34.89-13.23-34.78-29.24C825.73,75,845,59.68,865.77,67.32c3.22,1.18,5.64,3.38,8.56,5.79,1.39-2.24-.55-6.89,4.08-6.49C880.35,66.79,883.42,65,883.83,68.94Z"/><path class="cls-4" d="M1027.85,77.77c-8.2-9.65-18.46-13.16-30.79-10.15-13.14,3.2-21.69,16.67-20.16,31.57a27.47,27.47,0,0,0,25.56,24.43,52,52,0,0,0,13.33-1.38c-8.46,4.36-17.21,3.53-25.1-.54-13.89-7.18-16.77-19.76-14.3-33.5,2.57-14.26,13.77-22.51,28-22.71,8.61-.12,16,2.19,21.79,8.81C1027.11,75.33,1028,76.27,1027.85,77.77Z"/><path class="cls-4" d="M1,26.6q0,37.44,0,74.87c-1.27-1.22-.84-2.8-.84-4.25Q0,64,.07,30.83C.07,29.38-.36,27.79,1,26.6Z"/><path class="cls-4" d="M425.77,29.55c-.82,1.17-2.06.87-3.17.87H354.07c1.56-1.47,3.49-.84,5.25-.84Q392.55,29.51,425.77,29.55Z"/><path class="cls-4" d="M524.87,54.6q0,33.95,0,67.88c-1.16-1-.86-2.45-.86-3.75q0-30.2,0-60.39C524,57,523.71,55.64,524.87,54.6Z"/><path class="cls-4" d="M984.82,101c-1.78-3.72-1.48-5.56,3.5-5.45,13.25.28,26.51-.15,39.75.23,4.46.13,5.41-1.45,4.88-5.22,1.83,5.22,1.41,6-3.62,6-13.3,0-26.6.13-39.9-.06C985.93,96.42,984.52,97.59,984.82,101Z"/><path class="cls-4" d="M250,30.42l-56.89,0c1-1.17,2.44-.88,3.74-.88h49.41C247.53,29.56,248.92,29.27,250,30.42Z"/><path class="cls-4" d="M617.92,30.42H562c1.05-1.16,2.44-.87,3.74-.87h48.4C615.48,29.56,616.88,29.27,617.92,30.42Z"/><path class="cls-4" d="M775.9,30.42H722c.89-1,2.09-.86,3.24-.86h47.39C773.81,29.55,775,29.41,775.9,30.42Z"/><path class="cls-5" d="M1025.05,104.86c-7.3,15.08-27.32,16.14-34.55,6.83a5.69,5.69,0,0,1,1.92.25c14,7,21.71,5.37,31.26-6.91.4-.51.83-1,1.25-1.49A.76.76,0,0,1,1025.05,104.86Z"/><path class="cls-4" d="M155.89,58.61l0,43.88a7.07,7.07,0,0,1-.84-2.24q-.08-19.69,0-39.39A7.28,7.28,0,0,1,155.89,58.61Z"/><path class="cls-4" d="M924.86,99.76c-4.89-6.07-12.77-8-18.35-13.07C913.33,90.06,921.48,91.57,924.86,99.76Z"/><path class="cls-4" d="M964.85,99.76c-4.89-6.07-12.76-8-18.34-13.07C953.33,90.06,961.47,91.57,964.85,99.76Z"/><path class="cls-4" d="M1107.83,99.76c-4.89-6.07-12.76-8-18.34-13.07C1096.31,90.06,1104.45,91.57,1107.83,99.76Z"/><path class="cls-4" d="M1089.73,74.4c3.72-3.31,7.28-1.5,10.83.35,1.88,1,3,3,5.27,3.51-1.62,2.32-3.13.32-4-.51C1098.37,74.32,1094.29,73.63,1089.73,74.4Z"/><path class="cls-4" d="M946.75,74.4c3.72-3.31,7.28-1.5,10.83.35,1.88,1,3,3,5.26,3.51-1.61,2.32-3.12.32-4-.51C955.38,74.32,951.31,73.63,946.75,74.4Z"/><path class="cls-4" d="M906.75,74.4c3.73-3.31,7.28-1.5,10.84.35,1.87,1,3,3,5.26,3.51-1.61,2.32-3.13.32-4-.51C915.39,74.32,911.31,73.63,906.75,74.4Z"/><path class="cls-4" d="M873.69,116.42c1-1.15,2.16-3.52,2.68.25,1,6.79.94,6.79,7.48,5.27-4.66,3.3-8.32,2.09-8.91-3A2.92,2.92,0,0,0,873.69,116.42Z"/><path class="cls-4" d="M1021.72,119.37l7.12-7.08A9,9,0,0,1,1021.72,119.37Z"/><path class="cls-4" d="M1025.05,104.86l-.12-1.32a40.59,40.59,0,0,1,5.33,2.26c1.49.87,2.68,2.2.35,3.64C1030.7,105.55,1027.09,106.16,1025.05,104.86Z"/><path class="cls-4" d="M1060.85,74.5c3.42-2.23,7.51.36,11-1.55C1068.57,76.32,1064.48,73.78,1060.85,74.5Z"/><path class="cls-4" d="M133.12,15.52l0-7.91A7.81,7.81,0,0,1,133.12,15.52Z"/><path class="cls-4" d="M133.12,124.5l0-7.92A7.82,7.82,0,0,1,133.12,124.5Z"/><path class="cls-4" d="M1015.68,122.32l6.12-3C1020.64,122.08,1018.36,122.6,1015.68,122.32Z"/><path class="cls-4" d="M46.12.59c-2.53,1.63-5.33.64-8,.83C40.63-.32,43.46.92,46.12.59Z"/><path class="cls-4" d="M489.94,7.43l-6.9,0A6.36,6.36,0,0,1,489.94,7.43Z"/><path class="cls-4" d="M919.73,121.37l4.15-4C923.68,119.93,922.41,121.38,919.73,121.37Z"/><path class="cls-4" d="M1102.71,121.37l4.15-4C1106.65,119.93,1105.39,121.38,1102.71,121.37Z"/><path class="cls-4" d="M959.73,121.37l4.15-4C963.67,119.93,962.4,121.38,959.73,121.37Z"/><path class="cls-4" d="M780,136.55c-2.17,1.66-4.65.74-7,.86C775.17,135.7,777.69,136.86,780,136.55Z"/><path class="cls-4" d="M408.93,130.5c1.84-1.49,4-.75,6-.87C413.15,131.28,411,130.25,408.93,130.5Z"/><path class="cls-4" d="M1086.79,83.05c-1.38-1.87-1.1-3.69.14-5.49C1086.88,79.39,1086.84,81.22,1086.79,83.05Z"/><path class="cls-4" d="M903.81,83.05c-1.38-1.87-1.1-3.69.14-5.49C903.91,79.39,903.86,81.22,903.81,83.05Z"/><path class="cls-4" d="M943.81,83.05c-1.38-1.87-1.1-3.69.14-5.49C943.9,79.39,943.85,81.22,943.81,83.05Z"/><path class="cls-4" d="M1086.93,77.55a3.51,3.51,0,0,1,2.88-3.22A5,5,0,0,1,1086.93,77.55Z"/><path class="cls-4" d="M944,77.55a3.51,3.51,0,0,1,2.88-3.22A5,5,0,0,1,944,77.55Z"/><path class="cls-4" d="M904,77.55a3.51,3.51,0,0,1,2.88-3.22A5,5,0,0,1,904,77.55Z"/><path class="cls-4" d="M41,22.52c1.48-1.4,3.3-.84,5-.83C44.52,23.17,42.67,22.35,41,22.52Z"/><path class="cls-4" d="M349.07,129.67c1.72,0,3.53-.55,5,.83C352.4,130.33,350.55,131.15,349.07,129.67Z"/><path class="cls-4" d="M720,129.63c1.72.07,3.55-.52,5,.87C723.35,130.32,721.48,131.16,720,129.63Z"/><path class="cls-4" d="M776.88,157.49c1.49-1.38,3.3-.82,5-.83C780.43,158.14,778.57,157.32,776.88,157.49Z"/><path d="M80,124.53c-12.45-.57-27.64,1-42.75-.93a60.45,60.45,0,0,1-12.13-2.77c-13.3-4.58-18.69-12.1-18.71-26.07q0-29.25,0-58.49c0-15,5.94-22.78,20.36-26.66A80.83,80.83,0,0,1,47.5,6.76c25-.1,50-.06,75,0,4.35,0,6,2.38,4.85,6.29-1,3.22-3.53,2.51-5.75,2.52q-34.48,0-69,0a79,79,0,0,0-18.83,2C23,20.12,19,25.14,19,36.06q0,29,0,58c0,10,3.75,15.28,13.24,18.64,7.81,2.77,16,3.12,24.15,3.12q32.75,0,65.49,0c3.11,0,5.82.15,5.78,4.23,0,3.26-1.49,4.62-5,4.58C109.35,124.43,96,124.53,80,124.53Z"/><path d="M530.79,88.11c0-9.66.11-19.32,0-29-.13-8.7,4-14.43,11.66-18.06s16-4.84,24.28-4.91c17.65-.16,35.31-.81,52.94.46A49,49,0,0,1,639.73,42c6.43,3.47,9.93,8.92,10,16.12.17,20.49,0,41,.07,61.46,0,4.12-1.76,6.06-6.06,6s-5.85-1.77-5.82-6.09c.15-19.65.07-39.3.06-58.95,0-7.44-2.71-11.37-9.6-14a37.06,37.06,0,0,0-13.24-2.13q-24.48,0-49,0c-5.2,0-10.33.43-15.2,2.36-6.44,2.54-9,6.38-9,13.37,0,19.65-.06,39.31,0,59,0,4.29-1.27,6.59-6,6.46-3.8-.1-5.36-1.61-5.32-5.45C530.87,109.43,530.79,98.77,530.79,88.11Z"/><path d="M758.85,124.53c-13.23-.58-28.93,1.38-44.42-2a47.91,47.91,0,0,1-13.1-4.63c-7.59-4.18-11.16-10.63-11.16-19.17q0-18.22,0-36.46c0-10.59,4.85-18,14.78-22a44,44,0,0,1,14.46-3.56c21.6-1,43.24-1.89,64.79.88a46.63,46.63,0,0,1,10.09,2.66c11.83,4.36,16.47,11.19,16.47,23.8q0,29.72,0,59.43c0,13.55-5.48,21-18.46,24.92-13.3,4-27,3-40.63,3-2.32,0-3.72-1.18-3.71-3.71,0-2.88,1.4-4.28,4.28-4.28,6.33,0,12.65.05,19,0,7-.11,14-.68,20.48-3.56,5-2.21,7.75-5.89,8-11.58.12-3.19-1-3.87-4-3.83C784.2,124.63,772.71,124.53,758.85,124.53Z"/><path d="M443,56.44c0,14.48,0,29,0,43.45,0,8.5-3.82,14.57-11.2,18.54a51.75,51.75,0,0,1-24,5.83c-19.62.27-39.27,1.26-58.86-.71a44.44,44.44,0,0,1-18.42-5.7c-6.13-3.6-9.29-9-9.37-16-.15-13.15-.2-26.31,0-39.45.21-13.65,8.49-21.83,24.55-24.81a113,113,0,0,1,20.36-1.77c20.48,0,40.95-.09,61.43.06,3.37,0,4.67-.72,4.51-4.35-.3-6.64.06-13.32-.14-20-.12-4.06,1.55-5.86,5.54-5.75,3.72.09,5.74,1.36,5.68,5.66C442.88,26.48,443,41.46,443,56.44Z"/><path d="M223.52,36c10.13.27,22-.91,33.68,1.58,9.73,2.07,18.58,5.56,22.2,16.15a26.76,26.76,0,0,1,1.27,8.83c0,10.32-.41,20.66.09,31,.86,17.45-5.87,26.74-26.51,30-13.9,2.17-27.92.69-41.89,1-9.8.21-19.64.41-29.29-2-5.37-1.34-10.5-3.24-14.68-7-4-3.62-6.42-8.12-6.47-13.55-.12-13.81-.17-27.63,0-41.43.1-9.54,5.3-15.85,13.69-19.65,8.17-3.71,16.94-4.67,25.8-4.8C208.2,35.93,215,36,223.52,36Z"/><path class="cls-6" d="M876.81,95.41c-.08,12.58-9.37,22.18-21.51,22.22-11.66,0-21.38-10.22-21.35-22.52s9.68-22.52,21.38-22.47C867.51,72.68,876.89,82.63,876.81,95.41Z"/><path class="cls-5" d="M1004.83,89.64c-5.66,0-11.33-.06-17,0-2.31,0-3.38-.21-2.4-3a20.55,20.55,0,0,1,38.84-.39c1,2.81.34,3.49-2.46,3.42C1016.16,89.54,1010.49,89.64,1004.83,89.64Z"/><path class="cls-2" d="M492.81,83.3c0,12-.07,24,0,35.93,0,4.32-1.53,6.57-6.16,6.28-3.28-.21-4.73-1.6-4.72-5q.09-36.93,0-73.85c0-3.54,1.23-5.17,4.92-5.19s6,1.15,6,5.38c-.1,10.65,0,21.29,0,31.94Z"/><path class="cls-3" d="M486.93,25.55c-3.52-.23-7.22-.09-8.59-4.31-.77-2.36-.34-4.92,1.75-6.26,4-2.57,8.51-2.16,12.8-.51,2.51,1,3.23,3.24,2.77,5.72C494.72,25.14,490.75,25.28,486.93,25.55Z"/><path class="cls-1" d="M759.49,116.24c-12.15-.66-26.86,1.38-41.37-1.54-10.67-2.15-17.22-7.13-16.61-19.69.52-10.79.08-21.62.12-32.44,0-8.79,3.48-13.42,11.88-16.16a33.29,33.29,0,0,1,10.26-1.89c17.14,0,34.27-.06,51.41,0a31.45,31.45,0,0,1,15.29,4c5.32,3,8.43,7.49,8.46,13.7.07,16.81,0,33.62.09,50.42,0,2.82-.79,3.7-3.64,3.67C784.24,116.15,773.08,116.24,759.49,116.24Z"/><path class="cls-1" d="M431.91,73.67c0,7.66,0,15.32,0,23,0,8.26-3.47,13.54-11.16,16.48a32.56,32.56,0,0,1-9.14,2.3,428.63,428.63,0,0,1-59.86,0c-13.43-1-19.08-7.73-19.09-21.11q0-14.23,0-28.47c0-11.67,5.46-18.15,16.94-20.38a61.94,61.94,0,0,1,11.92-1c21.81,0,43.63.15,65.44-.1,4.37,0,5.2,1.34,5,5.32C431.69,57.67,431.91,65.67,431.91,73.67Z"/><path class="cls-1" d="M224,44.39c8.72.59,19.44-1.17,30,1.07,10.87,2.3,14.91,7.41,14.92,18.44q0,15.75,0,31.49c0,12.37-5.11,18.29-17.35,20.08a33.39,33.39,0,0,1-4,.41c-18.15.45-36.3.88-54.44-.25a28.69,28.69,0,0,1-12.36-3.6c-5-2.84-7.78-7.1-7.78-13,0-12.49-.05-25,0-37.48.05-7.09,4.36-12.49,11.82-14.95a46,46,0,0,1,14.74-2.23C207.12,44.43,214.62,44.39,224,44.39Z"/><path class="cls-6" d="M757.35,110.47c-9.85-.52-21.86,1-33.79-.9a62.13,62.13,0,0,1-7.31-1.44c-7.06-2-9.14-4.87-9.16-12.26,0-9.83,0-19.66,0-29.49,0-10.86,3.83-15.46,14.76-15.7,18.32-.41,36.65-.22,55,0A25.6,25.6,0,0,1,786,52.81c4.44,1.81,7.16,4.91,7.08,10.3-.21,14.33-.18,28.66,0,43,0,3.61-1.22,4.52-4.62,4.45C778.79,110.35,769.13,110.47,757.35,110.47Z"/><path class="cls-6" d="M380.66,110.52c-9.41-.56-19.05.59-28.68-.89-10.38-1.59-13.84-5.28-13.85-15.82,0-8.16,0-16.32,0-24.48-.07-13,3.1-17.92,18.76-18.63,17.77-.82,35.62-.3,53.43-.15,5.08,0,11.65-2.3,14.84,1.12,2.91,3.12.76,9.54.82,14.5.12,9,0,18,0,27,0,11.4-3.67,15-15.24,16.5C400.79,110.92,390.83,110,380.66,110.52Z"/><path class="cls-6" d="M224.33,50.5c7.86.6,18.41-1.3,28.77.9,8.18,1.74,9.92,4.17,9.92,12.3,0,11.15,0,22.3,0,33.46,0,6.72-1.82,9.26-8.26,11.34A41.62,41.62,0,0,1,242,110.44c-13.65,0-27.3.11-40.95,0-5.46-.07-10.92-.6-16.06-2.82-4.13-1.78-6.12-4.67-6.05-9.3.16-10.49.58-21-.09-31.45-.79-12.23,5.52-15,15.93-16.27a12.3,12.3,0,0,1,1.49,0Z"/></g></g></svg>